<svg width="36" height="36" viewBox="0 0 36 36" fill="none" xmlns="http://www.w3.org/2000/svg">
<g clip-path="url(#clip0_509_192)">
<path d="M35.5 18C35.5 27.665 27.665 35.5 18 35.5C8.33502 35.5 0.5 27.665 0.5 18C0.5 8.33502 8.33502 0.5 18 0.5C27.665 0.5 35.5 8.33502 35.5 18Z" stroke="#A0DBAA"/>
<path d="M10.515 23.621C10.56 23.8 11.683 28 18 28C24.318 28 25.44 23.8 25.485 23.621C25.5113 23.5154 25.5024 23.4042 25.4596 23.3042C25.4168 23.2042 25.3425 23.1209 25.248 23.067C25.1531 23.0133 25.0434 22.9918 24.9352 23.0057C24.8271 23.0196 24.7263 23.0681 24.648 23.144C24.629 23.163 22.694 25 18 25C13.306 25 11.37 23.163 11.352 23.145C11.2746 23.0685 11.1744 23.0192 11.0666 23.0046C10.9587 22.99 10.849 23.0108 10.754 23.064C10.6587 23.1179 10.5837 23.2015 10.5405 23.3021C10.4973 23.4028 10.4884 23.5148 10.515 23.621Z" fill="#A0DBAA"/>
<path d="M12 17C13.3807 17 14.5 15.433 14.5 13.5C14.5 11.567 13.3807 10 12 10C10.6193 10 9.5 11.567 9.5 13.5C9.5 15.433 10.6193 17 12 17Z" fill="#A0DBAA"/>
<path d="M24 17C25.3807 17 26.5 15.433 26.5 13.5C26.5 11.567 25.3807 10 24 10C22.6193 10 21.5 11.567 21.5 13.5C21.5 15.433 22.6193 17 24 17Z" fill="#A0DBAA"/>
</g>
<defs>
<clipPath id="clip0_509_192">
<rect width="36" height="36" fill="white"/>
</clipPath>
</defs>
</svg>
