<svg width="42" height="29" viewBox="0 0 42 29" fill="none" xmlns="http://www.w3.org/2000/svg">
<path d="M0 0H42V29H0V0ZM2.625 2.41667V26.5833H39.375V2.41667H2.625ZM5.26575 24.2319C5.26575 24.2319 7.99575 7.25967 12.0501 7.25967C16.1044 7.25967 17.8802 19.2318 21.1404 19.2318C24.4007 19.2318 24.1566 14.5544 26.5427 14.5544C28.9288 14.5544 37.1477 24.2331 37.1477 24.2331L5.26575 24.2319ZM32.8125 12.0833C32.2954 12.0833 31.7834 11.9896 31.3057 11.8074C30.828 11.6252 30.3939 11.3582 30.0283 11.0216C29.6626 10.685 29.3726 10.2854 29.1747 9.84556C28.9768 9.40576 28.875 8.93438 28.875 8.45833C28.875 7.98229 28.9768 7.51091 29.1747 7.07111C29.3726 6.6313 29.6626 6.23168 30.0283 5.89507C30.3939 5.55846 30.828 5.29144 31.3057 5.10927C31.7834 4.9271 32.2954 4.83333 32.8125 4.83333C33.8568 4.83333 34.8583 5.21525 35.5967 5.89507C36.3352 6.57489 36.75 7.49692 36.75 8.45833C36.75 9.41974 36.3352 10.3418 35.5967 11.0216C34.8583 11.7014 33.8568 12.0833 32.8125 12.0833Z" fill="#A0DBAA"/>
</svg>
