<svg width="24" height="25" viewBox="0 0 24 25" fill="none" xmlns="http://www.w3.org/2000/svg">
<path d="M16 6.8V6.5C16 4.29 14.21 2.5 12 2.5C9.79 2.5 8 4.29 8 6.5V11.5" stroke="#EB5757" stroke-width="1.5" stroke-linecap="round" stroke-linejoin="round"/>
<path d="M9.03906 14.69C9.76906 15.5 10.8291 16 11.9991 16C14.2091 16 15.9991 14.21 15.9991 12V11.5" stroke="#EB5757" stroke-width="1.5" stroke-linecap="round" stroke-linejoin="round"/>
<path d="M6.7793 17.45C8.1493 18.72 9.9793 19.5 11.9993 19.5C16.2193 19.5 19.6493 16.07 19.6493 11.85V10.15" stroke="#EB5757" stroke-width="1.5" stroke-linecap="round" stroke-linejoin="round"/>
<path d="M4.34961 10.15V11.85C4.34961 12.91 4.55961 13.91 4.94961 14.83" stroke="#EB5757" stroke-width="1.5" stroke-linecap="round" stroke-linejoin="round"/>
<path d="M20.0697 3.34L3.92969 19.49" stroke="#EB5757" stroke-width="1.5" stroke-linecap="round" stroke-linejoin="round"/>
<path d="M11 3.5V6.5" stroke="#EB5757" stroke-width="1.5" stroke-linecap="round" stroke-linejoin="round"/>
<path d="M12 19.5V22.5" stroke="#EB5757" stroke-width="1.5" stroke-linecap="round" stroke-linejoin="round"/>
</svg>
