<svg width="42" height="45" viewBox="0 0 42 45" fill="none" xmlns="http://www.w3.org/2000/svg">
<path fill-rule="evenodd" clip-rule="evenodd" d="M35.4375 25.3687C35.7562 27.2812 36.075 28.875 36.7125 30.7875L38.625 36.2062L37.0312 38.4375H25.875C25.875 40.0312 25.2375 41.625 23.9625 42.9C22.6875 44.175 21.0938 44.8125 19.5 44.8125C17.9062 44.8125 15.9937 44.175 15.0375 42.9C13.7625 41.625 13.125 40.0312 13.125 38.4375H1.96875L0.375 36.2062L2.2875 30.7875C2.925 28.2375 3.5625 25.6875 3.5625 23.1375V16.125C3.5625 13.8937 3.88125 11.6625 4.8375 9.75C5.79375 7.51875 7.06875 5.925 8.6625 4.33125C10.2562 2.7375 12.1688 1.78125 14.4 1.14375C15.9938 0.50625 17.9062 0.1875 19.5 0.1875C18.8625 1.14375 18.225 2.41875 17.5875 3.69375C16.95 3.69375 16.3125 3.69375 15.3562 4.33125C13.7625 4.65 12.1688 5.60625 10.8938 6.88125C9.61875 7.8375 8.34375 9.43125 7.70625 11.025C7.06875 12.6188 6.75 14.2125 6.75 16.125V23.1375C6.75 26.0062 6.1125 28.875 5.475 31.7437L4.2 35.25H34.8L33.525 31.7437C32.9672 30.0671 32.6516 28.1419 32.3679 26.4079L32.25 25.6875C33.525 25.6875 34.4812 25.6875 35.4375 25.3687ZM19.5 41.625C20.1375 41.625 21.0937 41.3063 21.7312 40.6688C22.3687 40.0313 22.6875 39.3938 22.6875 38.4375H16.3125C16.3125 39.3938 16.6313 40.0313 17.2688 40.6688C17.9063 41.3063 18.8625 41.625 19.5 41.625ZM41.8125 9.75C41.8125 12.2861 40.805 14.7184 39.0117 16.5117C37.2184 18.305 34.7861 19.3125 32.25 19.3125C29.7139 19.3125 27.2816 18.305 25.4883 16.5117C23.695 14.7184 22.6875 12.2861 22.6875 9.75C22.6875 7.21387 23.695 4.78161 25.4883 2.98829C27.2816 1.19497 29.7139 0.1875 32.25 0.1875C34.7861 0.1875 37.2184 1.19497 39.0117 2.98829C40.805 4.78161 41.8125 7.21387 41.8125 9.75Z" fill="black"/>
</svg>
