<svg width="33" height="33" viewBox="0 0 33 33" fill="none" xmlns="http://www.w3.org/2000/svg">
<path d="M32.4195 30.2134L22.0214 19.8152C23.635 17.7292 24.5078 15.1787 24.5078 12.4961C24.5078 9.28496 23.2546 6.27402 20.9884 4.00381C18.7222 1.73359 15.7032 0.484375 12.4961 0.484375C9.28897 0.484375 6.27002 1.7376 4.00381 4.00381C1.73359 6.27002 0.484375 9.28496 0.484375 12.4961C0.484375 15.7032 1.7376 18.7222 4.00381 20.9884C6.27002 23.2586 9.28496 24.5078 12.4961 24.5078C15.1787 24.5078 17.7252 23.635 19.8112 22.0254L30.2094 32.4195C30.2399 32.45 30.2761 32.4742 30.3159 32.4908C30.3558 32.5073 30.3985 32.5158 30.4416 32.5158C30.4847 32.5158 30.5274 32.5073 30.5673 32.4908C30.6071 32.4742 30.6433 32.45 30.6738 32.4195L32.4195 30.6778C32.45 30.6473 32.4742 30.6111 32.4908 30.5713C32.5073 30.5315 32.5158 30.4887 32.5158 30.4456C32.5158 30.4025 32.5073 30.3598 32.4908 30.3199C32.4742 30.2801 32.45 30.2439 32.4195 30.2134ZM18.8383 18.8383C17.1406 20.5319 14.8904 21.4648 12.4961 21.4648C10.1018 21.4648 7.85156 20.5319 6.15391 18.8383C4.46025 17.1406 3.52734 14.8904 3.52734 12.4961C3.52734 10.1018 4.46025 7.84756 6.15391 6.15391C7.85156 4.46025 10.1018 3.52734 12.4961 3.52734C14.8904 3.52734 17.1446 4.45625 18.8383 6.15391C20.5319 7.85156 21.4648 10.1018 21.4648 12.4961C21.4648 14.8904 20.5319 17.1446 18.8383 18.8383Z" fill="#545454"/>
</svg>
