<svg width="28" height="28" viewBox="0 0 28 28" fill="none" xmlns="http://www.w3.org/2000/svg">
<path d="M14.617 23.8234H7.2437C3.55703 23.8234 2.33203 21.3734 2.33203 18.9117V9.08836C2.33203 5.4017 3.55703 4.1767 7.2437 4.1767H14.617C18.3037 4.1767 19.5287 5.4017 19.5287 9.08836V18.9117C19.5287 22.5984 18.292 23.8234 14.617 23.8234Z" stroke="white" stroke-width="2.25" stroke-linecap="round" stroke-linejoin="round"/>
<path d="M22.7726 19.95L19.5293 17.675V10.3134L22.7726 8.03836C24.3593 6.93003 25.666 7.6067 25.666 9.55503V18.445C25.666 20.3934 24.3593 21.07 22.7726 19.95Z" stroke="white" stroke-width="2.25" stroke-linecap="round" stroke-linejoin="round"/>
<path d="M13.416 12.8333C14.3825 12.8333 15.166 12.0498 15.166 11.0833C15.166 10.1168 14.3825 9.33334 13.416 9.33334C12.4495 9.33334 11.666 10.1168 11.666 11.0833C11.666 12.0498 12.4495 12.8333 13.416 12.8333Z" stroke="white" stroke-width="2.25" stroke-linecap="round" stroke-linejoin="round"/>
</svg>
